<?xml version="1.0"?>
<svg xmlns="http://www.w3.org/2000/svg" xmlns:xlink="http://www.w3.org/1999/xlink" version="1.1" viewBox="0 0 192 192" width="50px" height="50px"><g transform="translate(28.8,28.8) scale(0.7,0.7)"><g fill="none" fill-rule="nonzero" stroke="none" stroke-width="1" stroke-linecap="butt" stroke-linejoin="miter" stroke-miterlimit="10" stroke-dasharray="" stroke-dashoffset="0" font-family="none" font-weight="none" font-size="none" text-anchor="none" style="mix-blend-mode: normal"><path d="M0,192v-192h192v192z" fill="none"/><g fill="#ffffff"><g id="surface1"><path d="M51.69231,0c-4.06731,0 -7.38462,3.31731 -7.38462,7.38462v22.15385c0,4.06731 3.31731,7.38462 7.38462,7.38462c4.06731,0 7.38462,-3.31731 7.38462,-7.38462v-22.15385c0,-4.06731 -3.31731,-7.38462 -7.38462,-7.38462zM140.30769,0c-4.06731,0 -7.38462,3.31731 -7.38462,7.38462v22.15385c0,4.06731 3.31731,7.38462 7.38462,7.38462c4.06731,0 7.38462,-3.31731 7.38462,-7.38462v-22.15385c0,-4.06731 -3.31731,-7.38462 -7.38462,-7.38462zM22.15385,14.76923c-12.23077,0 -22.15385,9.92308 -22.15385,22.15385v132.92308c0,12.23077 9.92308,22.15385 22.15385,22.15385h147.69231c12.23077,0 22.15385,-9.92308 22.15385,-22.15385v-132.92308c0,-12.23077 -9.92308,-22.15385 -22.15385,-22.15385h-14.76923v14.76923c0,8.16346 -6.60577,14.76923 -14.76923,14.76923c-8.16346,0 -14.76923,-6.60577 -14.76923,-14.76923v-14.76923h-59.07692v14.76923c0,8.16346 -6.60577,14.76923 -14.76923,14.76923c-8.16346,0 -14.76923,-6.60577 -14.76923,-14.76923v-14.76923zM14.76923,66.46154h162.46154v103.38462c0,4.06731 -3.31731,7.38462 -7.38462,7.38462h-147.69231c-4.06731,0 -7.38462,-3.31731 -7.38462,-7.38462zM66.46154,88.61538v17.07692h35.53846l-27.92308,56.53846h25.61538l25.61538,-62.30769v-11.30769z"/></g></g></g></g></svg>
